<?xml version="1.0" encoding="utf-8"?>
<!-- Generator: Adobe Illustrator 21.0.0, SVG Export Plug-In . SVG Version: 6.00 Build 0)  -->
<svg version="1.0" id="Layer_1" xmlns="http://www.w3.org/2000/svg" xmlns:xlink="http://www.w3.org/1999/xlink" x="0px" y="0px"
	 viewBox="0 0 20 20" style="enable-background:new 0 0 20 20;" xml:space="preserve">
<style type="text/css">
	.st0{fill:#FF0000;}
	.st1{fill:#FFFFFF;}
</style>
<circle class="st0" cx="10" cy="10" r="10"/>
<path class="st1" d="M7.5,8.3c0,0.5-0.4,0.8-0.8,0.8c-0.5,0-0.8-0.4-0.8-0.8c0-0.5,0.4-0.8,0.8-0.8C7.2,7.5,7.5,7.9,7.5,8.3z
	 M6.8,14.1L7,17.2c0,0.1,0.1,0.2,0.2,0.2c0.1,0,0.2-0.1,0.2-0.2l0.2-3.1h0.5l-0.6-3.5l1.1,2.3C8.7,13,8.8,13,8.9,13
	c0.1,0,0.1-0.2,0.1-0.3c0,0-0.8-2.3-1-2.7C7.8,9.6,7.6,9.4,6.8,9.4H6.6c-0.8,0-1,0.3-1.2,0.7c-0.2,0.4-1,2.7-1,2.7
	c0,0.1,0,0.2,0.1,0.3c0.1,0,0.2,0,0.3-0.1l1.1-2.3l-0.6,3.5h0.5L6,17.2c0,0.1,0.1,0.2,0.2,0.2c0.1,0,0.2-0.1,0.2-0.2l0.2-3.1H6.8z
	 M13.5,7.5c-0.5,0-0.8,0.4-0.8,0.8c0,0.5,0.4,0.8,0.8,0.8c0.5,0,0.8-0.4,0.8-0.8C14.3,7.9,13.9,7.5,13.5,7.5z M14.4,12.4l0.1-1.8
	l1,2.3c0,0.1,0.2,0.1,0.3,0.1c0.1,0,0.1-0.2,0.1-0.3c0,0-0.7-2.3-0.9-2.7c-0.2-0.4-0.5-0.7-1.3-0.7h-0.2c-0.8,0-1.1,0.3-1.3,0.7
	c-0.2,0.4-0.9,2.7-0.9,2.7c0,0.1,0,0.2,0.1,0.3c0.1,0,0.2,0,0.3-0.1l1-2.3l0.1,1.8L12.4,17c0,0.2,0.1,0.3,0.3,0.4c0,0,0,0,0,0
	c0.2,0,0.3-0.1,0.3-0.3l0.4-3.6l0.4,3.6c0,0.2,0.2,0.3,0.3,0.3c0,0,0,0,0,0c0.2,0,0.3-0.2,0.3-0.4L14.4,12.4L14.4,12.4z M10.1,12.6
	c-0.3,0-0.5,0.2-0.5,0.5c0,0.3,0.2,0.5,0.5,0.5c0.3,0,0.5-0.2,0.5-0.5C10.6,12.8,10.4,12.6,10.1,12.6z M10.1,15.6
	c0,0,0.2,1.6,0.2,1.6c0,0.1,0.1,0.1,0.2,0.1c0.1,0,0.2-0.1,0.2-0.1c0,0,0-0.1,0-0.1l-0.1-2l0-0.7c0-0.2,0-0.2,0.3-0.3
	c0.3-0.2,0.7-0.9,0.7-0.9c0,0,0.1-0.1,0.1-0.1c0-0.1,0-0.1-0.1-0.2c-0.1,0-0.1,0-0.1,0.1c0,0-0.6,0.7-1,0.8c-0.1,0-0.2-0.1-0.4-0.1
	H10c-0.3,0-0.3,0-0.4,0.1c-0.4-0.1-0.9-0.8-1-0.8c0,0-0.1-0.1-0.1-0.1c-0.1,0-0.1,0.1-0.1,0.2c0,0,0.1,0.1,0.1,0.1
	c0,0,0.5,0.7,0.7,0.9c0.3,0.2,0.3,0.1,0.3,0.3l0,0.7l-0.1,2c0,0,0,0.1,0,0.1c0,0.1,0.1,0.1,0.2,0.1c0.1,0,0.2-0.1,0.2-0.1
	C9.9,17.2,10.1,15.6,10.1,15.6 M19.1,9.3c0.3-0.4,0.2-0.9-0.2-1.1L11.4,3c-0.8-0.5-1.9-0.5-2.7,0L1.3,8.2C0.9,8.4,0.8,8.9,1.1,9.3
	c0.3,0.4,0.8,0.5,1.1,0.2l7.4-5.2c0.2-0.1,0.6-0.1,0.8,0l7.4,5.2c0.1,0.1,0.3,0.1,0.5,0.1C18.7,9.7,18.9,9.5,19.1,9.3z"/>
</svg>
