<svg id="Layer_1" data-name="Layer 1" xmlns="http://www.w3.org/2000/svg" viewBox="0 0 20 20"><defs><style>.cls-1{fill:#ed1c24;}.cls-2{fill:#fff;}</style></defs><title>community</title><circle class="cls-1" cx="10" cy="10" r="10"/><path class="cls-2" d="M10,1.5,1.43,10.07H3.57V16.5H16.43V10.07h2.14Zm3,4.85a.75.75,0,1,1-.76.75A.76.76,0,0,1,13,6.35Zm-3,4.59a.46.46,0,1,1,0,.92.46.46,0,1,1,0-.92ZM7,6.35a.75.75,0,1,1-.75.75A.75.75,0,0,1,7,6.35Zm.75,5.92-.15,2.78a.18.18,0,1,1-.35,0L7,12.27H6.86l-.15,2.78a.18.18,0,1,1-.35,0L6.2,12.27H5.71l.51-3.12-1,2a.18.18,0,0,1-.23.1.18.18,0,0,1-.09-.23s.75-2,.94-2.41S6.18,8,6.88,8H7c.71,0,.89.23,1.07.61S9,11.06,9,11.06a.18.18,0,1,1-.32.14l-1-2,.51,3.12Zm3.74-.76a3.78,3.78,0,0,1-.67.81c-.23.14-.24.08-.26.28l0,.61L10.56,15a.63.63,0,0,1,0,.1.19.19,0,0,1-.18.13.2.2,0,0,1-.18-.12L10,13.66l-.21,1.45a.19.19,0,0,1-.18.12.19.19,0,0,1-.17-.13.5.5,0,0,1,0-.1l.09-1.78,0-.61c0-.21,0-.14-.26-.28a3.78,3.78,0,0,1-.67-.81.45.45,0,0,1-.06-.12.12.12,0,0,1,.09-.14.13.13,0,0,1,.12.05s.51.66.86.72A1.7,1.7,0,0,1,10,12H10a1.7,1.7,0,0,1,.39.05c.35-.06.82-.69.85-.72a.14.14,0,0,1,.12-.05.12.12,0,0,1,.09.14A.46.46,0,0,1,11.44,11.51ZM15,11.29a.18.18,0,0,1-.23-.1l-.92-2-.05,1.64h0L14,14.92a.3.3,0,0,1-.27.32h0a.29.29,0,0,1-.29-.28L13,11.56,12.71,15a.3.3,0,0,1-.3.28h0a.3.3,0,0,1-.28-.32l.15-4.13-.05-1.64-.92,2a.18.18,0,0,1-.23.1.18.18,0,0,1-.09-.23s.65-2,.83-2.41S12.27,8,13,8h.15c.7,0,1,.23,1.17.61s.84,2.41.84,2.41A.18.18,0,0,1,15,11.29Z"/></svg>